<?xml version="1.0" encoding="utf-8"?>
<!-- Generator: Adobe Illustrator 28.2.0, SVG Export Plug-In . SVG Version: 6.00 Build 0)  -->
<svg version="1.1" xmlns="http://www.w3.org/2000/svg" xmlns:xlink="http://www.w3.org/1999/xlink" x="0px" y="0px"
	 viewBox="0 0 1000 2000" style="enable-background:new 0 0 1000 2000;" xml:space="preserve">
<g id="green_blob">
	<path d="M811.9,860.3H706.1c-88.6,0-161.1-72.5-161.1-161.1V242.2c0-88.6,72.5-161.1,161.1-161.1h105.8
		c88.6,0,161.1,72.5,161.1,161.1v456.9C972.9,787.8,900.5,860.3,811.9,860.3z"/>
</g>
<g id="clovers">
	<g>
		<path d="M302.7,762.4c0,15.2-5,29.1-15.1,41.6c-10,12.5-25.7,18.7-47,18.7c-21.9,0-37.8-6.2-47.5-18.7
			c-9.7-12.5-14.6-26.3-14.6-41.6c0-11.6,2.7-24,8.2-37.4c5.5-13.4,11.7-27.2,18.7-41.6c7-14.3,13.4-28.5,19.2-42.5
			c5.8-14,8.7-27.7,8.7-41.1c-12.8,0.6-25.7,3.8-38.8,9.6c-13.1,5.8-26.2,12.3-39.3,19.6c-13.1,7.3-26,13.7-38.8,19.2
			s-25.3,8.2-37.4,8.2c-15.2,0-28.9-5.5-41.1-16.4c-12.2-11-18.3-26.5-18.3-46.6c0-20.7,5.9-36.4,17.8-47c11.9-10.6,25.7-16,41.6-16
			c12.2,0,24.7,2.7,37.4,8.2s25.9,11.7,39.3,18.7c13.4,7,26.6,13.4,39.7,19.2c13.1,5.8,25.7,9.3,37.9,10.5
			c-0.6-15.2-3.8-29.7-9.6-43.4c-5.8-13.7-13.4-26.2-22.8-37.4c-9.4-11.3-19.6-21-30.6-29.2s-21.9-14.2-32.9-17.8v-1.8
			c11-3.7,22.1-9.4,33.3-17.4c11.3-7.9,21.6-17.4,31.1-28.3c9.4-11,17-23.3,22.8-37c5.8-13.7,8.7-27.9,8.7-42.5
			c-12.8,0.6-25.7,4-38.8,10c-13.1,6.1-26.2,12.9-39.3,20.5c-13.1,7.6-26,14.2-38.8,19.6s-25.3,8.2-37.4,8.2
			c-16.4,0-30.5-5.2-42-15.5c-11.6-10.3-17.4-25.9-17.4-46.6c0-20.1,6.1-35.6,18.3-46.6c12.2-11,25.9-16.4,41.1-16.4
			c12.2,0,24.7,2.6,37.4,7.8c12.8,5.2,25.9,11.3,39.3,18.3c13.4,7,26.6,13.2,39.7,18.7c13.1,5.5,25.7,8.5,37.9,9.1
			c0-13.4-2.9-27.1-8.7-41.1c-5.8-14-12.2-28.2-19.2-42.5c-7-14.3-13.2-28.2-18.7-41.6c-5.5-13.4-8.2-25.9-8.2-37.4
			c0-14.6,4.9-28.2,14.6-40.6c9.7-12.5,25.6-18.7,47.5-18.7c21.3,0,37,6.1,47,18.3c10,12.2,15.1,25.9,15.1,41.1
			c0,11.6-2.9,24.2-8.7,37.9c-5.8,13.7-12.3,27.7-19.6,42c-7.3,14.3-13.9,28.5-19.6,42.5c-5.8,14-8.7,27.7-8.7,41.1
			c13.4-1.2,26.8-4.6,40.2-10c13.4-5.5,26.6-11.7,39.7-18.7c13.1-7,26-13.1,38.8-18.3c12.8-5.2,25.3-7.8,37.4-7.8
			c14,0,27.5,5.5,40.6,16.4c13.1,11,19.6,26.5,19.6,46.6c0,20.7-6.2,36.2-18.7,46.6c-12.5,10.4-26.3,15.5-41.6,15.5
			c-12.2,0-24.7-2.9-37.4-8.7c-12.8-5.8-25.7-12.3-38.8-19.6c-13.1-7.3-26.3-14-39.7-20.1c-13.4-6.1-26.8-9.4-40.2-10
			c0,15.2,3,29.5,9.1,42.9c6.1,13.4,13.8,25.6,23.3,36.5c9.4,11,19.9,20.4,31.5,28.3c11.6,7.9,22.8,13.7,33.8,17.4v1.8
			c-11.6,4.3-23.1,10.5-34.7,18.7c-11.6,8.2-22.1,18-31.5,29.2c-9.4,11.3-17.1,23.7-22.8,37.4c-5.8,13.7-8.7,27.9-8.7,42.5
			c13.4-0.6,26.8-3.8,40.2-9.6c13.4-5.8,26.6-12.3,39.7-19.6c13.1-7.3,26-13.7,38.8-19.2s25.3-8.2,37.4-8.2c15.2,0,29.1,5.3,41.6,16
			c12.5,10.7,18.7,26.3,18.7,47c0,20.1-6.4,35.6-19.2,46.6c-12.8,11-26.5,16.4-41.1,16.4c-12.2,0-24.7-2.7-37.4-8.2
			S339,636.3,325.9,629c-13.1-7.3-26.3-14-39.7-20.1c-13.4-6.1-26.8-9.4-40.2-10c0,13.4,2.9,27.3,8.7,41.6
			c5.8,14.3,12.5,28.6,20.1,42.9c7.6,14.3,14.2,28.2,19.6,41.6C299.9,738.3,302.7,750.8,302.7,762.4z"/>
	</g>
</g>
<g id="flower">
	<g>
		<path d="M415.4,1685.7c0-17.8,3.1-35.2,9.4-52c6.3-16.8,13.9-34.4,22.8-52.7c8.9-18.4,17.3-38.1,25.2-59
			c7.9-21,13.9-44.1,18.1-69.3c-18.9,15.8-35.4,32.3-49.6,49.6c-14.2,17.3-27.3,34.4-39.4,51.1c-12.1,16.8-24.1,32-36.2,45.7
			s-26,24.7-41.7,33c-22.1,12.6-44.1,17.6-66.1,15c-22.1-2.6-40.4-14.4-55.1-35.4c-14.7-23.1-17.1-44.9-7.1-65.3
			c10-20.5,24.9-37,44.9-49.6c21-12.6,44.9-20.5,71.6-23.6c26.8-3.2,54.8-6.3,84.2-9.4s59.3-10,89.7-20.5
			c-31.5-11.5-62.2-19.1-92.1-22.8c-29.9-3.7-57.7-7.1-83.4-10.2c-25.7-3.2-49.6-10.5-71.6-22c-19.9-11.5-34.6-27.8-44.1-48.8
			c-9.5-21-6.8-43.6,7.9-67.7c12.6-21,30.2-32.8,52.7-35.4s45.4,2.9,68.5,16.5c15.7,8.4,29.6,19.7,41.7,33.8
			c12.1,14.2,24.1,29.7,36.2,46.4c12.1,16.8,25.2,33.9,39.4,51.2c14.2,17.3,30.7,33.8,49.6,49.6c-4.2-25.2-10.2-48.5-18.1-70
			c-7.9-21.5-16.3-41.4-25.2-59.8c-8.9-18.4-16.5-36.2-22.8-53.5c-6.3-17.3-9.4-34.4-9.4-51.2c0-23.1,7.1-44.3,21.2-63.7
			c14.2-19.4,34.9-29.1,62.2-29.1c26.2,0,45.9,9.5,59,28.3c13.1,18.9,19.7,40.4,19.7,64.5c0,22.1-5,44.6-15,67.7
			c-10,23.1-20.7,47.7-32.3,74s-21,56.1-28.3,89.7c19.9-15.8,37.3-32.5,51.9-50.4c14.7-17.8,27.8-34.9,39.4-51.1
			c11.5-16.3,23.3-31.5,35.4-45.6s26-25.5,41.7-33.9c21-13.6,43.8-18.6,68.5-15c24.7,3.7,43.3,16,55.9,37
			c14.7,23.1,16.8,45.4,6.3,66.9c-10.5,21.5-26.2,38-47.2,49.6c-21,11.5-44.3,18.9-70.1,22c-25.7,3.2-53.5,6.3-83.4,9.5
			s-61.6,10.5-95.2,22c33.6,10.5,65.3,17.6,95.2,21.3c29.9,3.7,57.7,7.3,83.4,11c25.7,3.7,48.5,11.3,68.5,22.8
			c21,10.5,36.7,26.2,47.2,47.2c10.5,21,8.9,43.5-4.7,67.7c-13.6,22.1-32,34.4-55.1,37c-23.1,2.6-46.2-2.9-69.3-16.5
			c-14.7-8.4-28.1-19.4-40.1-33s-24.1-29.1-36.2-46.4c-12.1-17.3-25.2-34.9-39.4-52.7c-14.2-17.8-30.7-34.6-49.6-50.4
			c5.2,25.2,11.8,48.3,19.7,69.3c7.9,21,16,40.9,24.4,59.8c8.4,18.9,15.2,37,20.5,54.3c5.2,17.3,7.9,34.9,7.9,52.7
			c0,23.1-6.8,43.8-20.5,62.2c-13.6,18.4-33.6,27.5-59.8,27.5c-27.3,0-47.8-9.2-61.4-27.5C422.2,1729.5,415.4,1708.8,415.4,1685.7z"
			/>
	</g>
</g>
</svg>
